<mxfile host="app.diagrams.net" agent="Mozilla/5.0 (X11; Linux x86_64; rv:142.0) Gecko/20100101 Firefox/142.0" version="28.0.7">
  <diagram name="Current Architecture" id="pc1UDVUt91FdkkdVPdeP">
    <mxGraphModel dx="614" dy="901" grid="1" gridSize="10" guides="1" tooltips="1" connect="1" arrows="1" fold="1" page="1" pageScale="1" pageWidth="850" pageHeight="1100" math="0" shadow="0">
      <root>
        <mxCell id="0" />
        <mxCell id="1" parent="0" />
        <mxCell id="vqKRRTSMioDwF92vJBwa-6" style="edgeStyle=orthogonalEdgeStyle;rounded=0;orthogonalLoop=1;jettySize=auto;html=1;entryX=0.5;entryY=0;entryDx=0;entryDy=0;" edge="1" parent="1" source="Gd_Z6N1HKhyzcX56wtnL-1" target="vqKRRTSMioDwF92vJBwa-4">
          <mxGeometry relative="1" as="geometry">
            <Array as="points">
              <mxPoint x="260" y="610" />
              <mxPoint x="420" y="610" />
            </Array>
          </mxGeometry>
        </mxCell>
        <mxCell id="Gd_Z6N1HKhyzcX56wtnL-1" value="&lt;div&gt;DefaultScanner&lt;/div&gt;&lt;div&gt;default-scanner.ts&lt;/div&gt;" style="rounded=0;whiteSpace=wrap;html=1;" parent="1" vertex="1">
          <mxGeometry x="200" y="480" width="120" height="60" as="geometry" />
        </mxCell>
        <mxCell id="Gd_Z6N1HKhyzcX56wtnL-3" style="edgeStyle=orthogonalEdgeStyle;rounded=0;orthogonalLoop=1;jettySize=auto;html=1;entryX=0.5;entryY=0;entryDx=0;entryDy=0;exitX=0;exitY=0.5;exitDx=0;exitDy=0;" parent="1" source="vqKRRTSMioDwF92vJBwa-1" target="Gd_Z6N1HKhyzcX56wtnL-1" edge="1">
          <mxGeometry relative="1" as="geometry" />
        </mxCell>
        <mxCell id="Gd_Z6N1HKhyzcX56wtnL-6" value="Company site" style="edgeLabel;html=1;align=center;verticalAlign=middle;resizable=0;points=[];" parent="Gd_Z6N1HKhyzcX56wtnL-3" vertex="1" connectable="0">
          <mxGeometry x="0.4214" relative="1" as="geometry">
            <mxPoint y="-14" as="offset" />
          </mxGeometry>
        </mxCell>
        <mxCell id="vqKRRTSMioDwF92vJBwa-2" value="" style="edgeStyle=orthogonalEdgeStyle;rounded=0;orthogonalLoop=1;jettySize=auto;html=1;" edge="1" parent="1" source="Gd_Z6N1HKhyzcX56wtnL-2" target="vqKRRTSMioDwF92vJBwa-1">
          <mxGeometry relative="1" as="geometry" />
        </mxCell>
        <mxCell id="Gd_Z6N1HKhyzcX56wtnL-2" value="&lt;div&gt;User visits&lt;/div&gt;&lt;div&gt;site&lt;/div&gt;" style="shape=parallelogram;perimeter=parallelogramPerimeter;whiteSpace=wrap;html=1;fixedSize=1;" parent="1" vertex="1">
          <mxGeometry x="360" y="200" width="120" height="60" as="geometry" />
        </mxCell>
        <mxCell id="vqKRRTSMioDwF92vJBwa-5" style="edgeStyle=orthogonalEdgeStyle;rounded=0;orthogonalLoop=1;jettySize=auto;html=1;entryX=0.5;entryY=0;entryDx=0;entryDy=0;" edge="1" parent="1" source="Gd_Z6N1HKhyzcX56wtnL-9" target="vqKRRTSMioDwF92vJBwa-4">
          <mxGeometry relative="1" as="geometry">
            <Array as="points">
              <mxPoint x="460" y="610" />
              <mxPoint x="420" y="610" />
            </Array>
          </mxGeometry>
        </mxCell>
        <mxCell id="Gd_Z6N1HKhyzcX56wtnL-9" value="&lt;div&gt;AmazonScanner&lt;/div&gt;&lt;div&gt;amazon-scanner.ts&lt;/div&gt;" style="rounded=0;whiteSpace=wrap;html=1;" parent="1" vertex="1">
          <mxGeometry x="400" y="480" width="120" height="60" as="geometry" />
        </mxCell>
        <mxCell id="vqKRRTSMioDwF92vJBwa-7" style="edgeStyle=orthogonalEdgeStyle;rounded=0;orthogonalLoop=1;jettySize=auto;html=1;entryX=0.5;entryY=0;entryDx=0;entryDy=0;dashed=1;" edge="1" parent="1" source="Gd_Z6N1HKhyzcX56wtnL-15" target="vqKRRTSMioDwF92vJBwa-4">
          <mxGeometry relative="1" as="geometry">
            <Array as="points">
              <mxPoint x="700" y="610" />
              <mxPoint x="420" y="610" />
            </Array>
          </mxGeometry>
        </mxCell>
        <mxCell id="Gd_Z6N1HKhyzcX56wtnL-15" value="{{&amp;nbsp;&lt;i&gt;FutureScanners&amp;nbsp;&lt;/i&gt;}}" style="whiteSpace=wrap;html=1;rounded=0;dashed=1;" parent="1" vertex="1">
          <mxGeometry x="640" y="480" width="120" height="60" as="geometry" />
        </mxCell>
        <mxCell id="vqKRRTSMioDwF92vJBwa-8" style="edgeStyle=orthogonalEdgeStyle;rounded=0;orthogonalLoop=1;jettySize=auto;html=1;entryX=0.5;entryY=0;entryDx=0;entryDy=0;dashed=1;" edge="1" parent="1" source="vqKRRTSMioDwF92vJBwa-1" target="Gd_Z6N1HKhyzcX56wtnL-15">
          <mxGeometry relative="1" as="geometry">
            <Array as="points">
              <mxPoint x="580" y="350" />
              <mxPoint x="580" y="450" />
              <mxPoint x="700" y="450" />
            </Array>
          </mxGeometry>
        </mxCell>
        <mxCell id="vqKRRTSMioDwF92vJBwa-9" style="edgeStyle=orthogonalEdgeStyle;rounded=0;orthogonalLoop=1;jettySize=auto;html=1;entryX=0.5;entryY=0;entryDx=0;entryDy=0;" edge="1" parent="1" source="vqKRRTSMioDwF92vJBwa-1" target="Gd_Z6N1HKhyzcX56wtnL-9">
          <mxGeometry relative="1" as="geometry">
            <Array as="points">
              <mxPoint x="580" y="350" />
              <mxPoint x="580" y="450" />
              <mxPoint x="460" y="450" />
            </Array>
          </mxGeometry>
        </mxCell>
        <mxCell id="vqKRRTSMioDwF92vJBwa-10" value="E-shop site&lt;br&gt;(e.g. Amazon, Ebay)" style="edgeLabel;html=1;align=center;verticalAlign=middle;resizable=0;points=[];" vertex="1" connectable="0" parent="vqKRRTSMioDwF92vJBwa-9">
          <mxGeometry x="0.2237" y="-5" relative="1" as="geometry">
            <mxPoint x="14" y="-45" as="offset" />
          </mxGeometry>
        </mxCell>
        <mxCell id="vqKRRTSMioDwF92vJBwa-1" value="&lt;div&gt;ContentScanner&lt;/div&gt;&lt;div&gt;content-scanner.ts&lt;/div&gt;" style="rounded=0;whiteSpace=wrap;html=1;" vertex="1" parent="1">
          <mxGeometry x="360" y="320" width="120" height="60" as="geometry" />
        </mxCell>
        <mxCell id="vqKRRTSMioDwF92vJBwa-4" value="&lt;div&gt;extends&lt;/div&gt;&lt;div&gt;BaseDomainScanner&lt;/div&gt;&lt;div&gt;base-domain-scanner.ts&lt;/div&gt;" style="rounded=0;whiteSpace=wrap;html=1;" vertex="1" parent="1">
          <mxGeometry x="350" y="640" width="140" height="60" as="geometry" />
        </mxCell>
      </root>
    </mxGraphModel>
  </diagram>
</mxfile>
